# xmcd
#
# Track frame offsets:
#	150
#	13273
#	29980
#	40161
#	48831
#	59733
#	74377
#	84052
#	97224
#	103418
#	116878
#	128103
#	140456
#	149434
#	163609
#
# Disc length: 2307 seconds
#
# Revision: 1
# Processed by: cddbd v1.5.2PL0 Copyright (c) Steve Scherf et al.
# Submitted via: audiograbber 1.83.01
#
DISCID=e609010f
DTITLE=Compilation - It's All Country 1
DYEAR=2008
DGENRE=Country
TTITLE0=Willie Nelson - If I Don't Understand
TTITLE1=Rex Allen jr. - Memory Train
TTITLE2=Waylon Jennings - White Lightning
TTITLE3=Johnny Cash - Big River (live)
TTITLE4=Don Gibson - Oh Lonesome Me
TTITLE5=Ray Conniff - Luar Do Sertao
TTITLE6=Donna Frago - Sticks And Stones
TTITLE7=Johnny Cash - Wanted Man
TTITLE8=Nashville 10 - Singing My Song
TTITLE9=Tex Williams - Smoke, Smoke, Smoke
TTITLE10=Dolly Parton - It Wasn't God Who Made Honky Tonk Angels
TTITLE11=Lee Hazlewood - These Boots Are Made For Walking
TTITLE12=Willie Nelson - Why Are You Picking On Me
TTITLE13=Tom T. Hall - Week In A Country Jail
TTITLE14=Webb Pierce - In The Jailhouse Now
EXTD=
EXTT0=
EXTT1=
EXTT2=
EXTT3=
EXTT4=
EXTT5=
EXTT6=
EXTT7=
EXTT8=
EXTT9=
EXTT10=
EXTT11=
EXTT12=
EXTT13=
EXTT14=
PLAYORDER=
